<svg xmlns="http://www.w3.org/2000/svg" width="64" height="64" viewBox="0 0 64 64">
  <defs>
    <style>
      .cls-1 {
        fill: #0072bc;
      }

      .cls-2 {
        fill: #fff;
        fill-rule: evenodd;
      }
    </style>
  </defs>
  <circle class="cls-1" cx="32" cy="32" r="30"/>
  <path id="TA" class="cls-2" d="M38.659,18.229c-0.048-1.056-.48-1.056-1.152-1.008a4.2,4.2,0,0,1-.768.1c-0.144.048-.192-0.1-0.192-0.192a0.882,0.882,0,0,1,.384-0.672,0.328,0.328,0,0,0,.288-0.384c0-.144-0.192-0.24-0.48-0.24a0.609,0.609,0,0,0-.288-0.048,9.451,9.451,0,0,1-2.832-.144H33.426c-0.864.048-1.776,0.048-2.688,0.048a2.779,2.779,0,0,1-1.536-.144c-0.1-.048-0.144-0.048-0.144.048a0.46,0.46,0,0,1-.48.144c-1.056,0-2.16,0-3.216.048-1.1.048-2.256,0-3.408,0v0.048c-1.344,0-2.736,0-4.08.048a4.2,4.2,0,0,0-.768.1,0.854,0.854,0,0,0-.384.336,0.369,0.369,0,0,0-.1.144c0.048,0,.1.048,0.144,0.048h1.248a0.866,0.866,0,0,1,.576.144,0.938,0.938,0,0,0,.816.24h0.48a0.1,0.1,0,0,1,.1.1,0.047,0.047,0,0,1-.048.048,3.4,3.4,0,0,1-.672.048,12.611,12.611,0,0,0-2.352.192c-0.672.144-.768,0.192-0.864,1.008a1.525,1.525,0,0,0,.144.432c0.048,0.144.192,0.288,0.24,0.432a3.022,3.022,0,0,0,1.344,1.728,0.616,0.616,0,0,0,.48.192,9.315,9.315,0,0,0,1.632-.1,8.5,8.5,0,0,1,1.92-.048,8.348,8.348,0,0,0,1.536-.048H23.97c0.24,0,.288.1,0.192,0.336-0.336.864-.48,1.776-0.864,2.64-0.384.768-.432,1.632-0.816,2.448-0.192.432-.192,0.96-0.384,1.392-0.336.816-.48,1.68-0.864,2.448a2.776,2.776,0,0,0-.24.672,2.532,2.532,0,0,1-.144.576c-0.288.672-.48,1.44-0.72,2.112a8.272,8.272,0,0,1-.336,1.008c-0.192.48-.384,0.96-0.528,1.44a18.878,18.878,0,0,1-.912,2.784c-0.192.624-.432,1.2-0.576,1.824a12.275,12.275,0,0,1-.768,2.352,1.363,1.363,0,0,0-.192.576,2.014,2.014,0,0,1-.336,1.152,0.689,0.689,0,0,0,.144,1.056,0.259,0.259,0,0,1,.1.384,8.333,8.333,0,0,1-.48.912,0.394,0.394,0,0,0,.288.624,0.83,0.83,0,0,0,.48-0.048c0.144,0,.192.048,0.1,0.192a0.72,0.72,0,0,0,.192,1.056c0.48,0.432.912,0.432,1.1-.24,0.1-.288.1-0.672,0.576-0.576a0.394,0.394,0,0,0,.24-0.24c0.1-.192.144-0.432,0.24-0.672l1.968-5.9L22,39.543l0.768-2.4a0.375,0.375,0,0,1,.192-0.192,2.079,2.079,0,0,0,.048.24L22.289,39.4l-1.728,5.328-0.144.576a0.423,0.423,0,0,0,.192.432,0.389,0.389,0,0,1,.144.48l-0.528,1.632A1.112,1.112,0,0,0,20.417,49a0.433,0.433,0,0,0,.24.048,0.5,0.5,0,0,0,.192-0.144,1.139,1.139,0,0,1,.336-0.96,1.436,1.436,0,0,0,.48-0.816c0.288-1.008.624-1.968,0.96-2.976,0.672-1.968,1.392-3.936,1.968-5.9,0.24-.768.624-1.488,0.816-2.3,0.1-.48.336-0.96,0.432-1.488a0.9,0.9,0,0,1,.24-0.528,1.034,1.034,0,0,0,.288-0.768,0.943,0.943,0,0,1,.144-0.48,2.913,2.913,0,0,0,.336-0.672,1.113,1.113,0,0,0,.144-0.768c0.144-.432.24-0.912,0.432-1.392,0.144-.48.432-0.96,0.576-1.44a4.659,4.659,0,0,0,.528-1.632,0.415,0.415,0,0,1,.144-0.288,5.142,5.142,0,0,0,.672-1.68c0.144-.672.528-1.3,0.672-2.016a8.213,8.213,0,0,1,.432-1.44,0.663,0.663,0,0,1,.624-0.48,0.9,0.9,0,0,0,.528-0.048,0.99,0.99,0,0,1,.96-0.1c0.48,0,.912.048,1.392,0.048a1.245,1.245,0,0,0,.816-0.144,0.433,0.433,0,0,1,.24-0.048,0.932,0.932,0,0,0,.768.24,0.556,0.556,0,0,0,.672-0.288,0.388,0.388,0,0,1,.432-0.192,0.8,0.8,0,0,0,.864-0.432,0.712,0.712,0,0,0,.048-0.336,1.089,1.089,0,0,0-.192-0.048c-0.72,0-1.44.048-2.16,0.048a2.952,2.952,0,0,1-.624.048l-0.144-.192,0.1-.1h1.776a2.153,2.153,0,0,0,.528-0.048,0.811,0.811,0,0,0,.24-0.1,0.483,0.483,0,0,0,.048-0.144c0.048,0-.048-0.048-0.1-0.048a7.09,7.09,0,0,0-1.008-.048,0.609,0.609,0,0,1-.288-0.048,0.176,0.176,0,0,1-.144-0.048c0.048,0,.1-0.048.144-0.048a1.854,1.854,0,0,0,1.008-.144,1.293,1.293,0,0,1,1.536-.1l0.144-.144A0.265,0.265,0,0,0,38.659,18.229ZM23.73,34.935l-0.1.192V34.935c0-.048.048-0.1,0.048-0.144C23.682,34.839,23.73,34.887,23.73,34.935ZM34.242,19.045H33.906V19H34.05A0.363,0.363,0,0,1,34.242,19.045ZM27.09,20.87a0.176,0.176,0,0,0-.048.144C26.946,20.87,26.994,20.87,27.09,20.87Zm-5.712.192a0.1,0.1,0,0,1-.1.048,0.047,0.047,0,0,0,.048.048c0.048,0,.048,0,0.048-0.048V21.062Zm5.76-.192H27.09a0.1,0.1,0,0,1,.1-0.048C27.138,20.822,27.186,20.87,27.138,20.87ZM23.154,36.327V36.279L23.2,36.327H23.154Zm13.632,8.3a0.458,0.458,0,0,0,.384-0.24,5.329,5.329,0,0,0,.336-0.768,0.89,0.89,0,0,1,.336-0.576c0,0.1,0,.24.192,0.192a0.767,0.767,0,0,0,.624-0.432,1.936,1.936,0,0,1,.624-0.624A8.507,8.507,0,0,1,41.49,40.7a1,1,0,0,0,.288-0.192,1.537,1.537,0,0,1,.912-0.48c0.528-.24.768-0.1,0.768,0.48a6.505,6.505,0,0,1-.1.96,3.305,3.305,0,0,0-.1.624,6.894,6.894,0,0,1-.192,2.208,0.41,0.41,0,0,0,0,.336,0.917,0.917,0,0,1,0,.864,0.313,0.313,0,0,0,.1.432c0.192,0.144.192,0.24,0.048,0.432a2.164,2.164,0,0,0-.24,1.2,0.4,0.4,0,0,0,.192.288,1.161,1.161,0,0,1,.864.768c0.1,0.288.24,0.288,0.528,0.144a2.158,2.158,0,0,1,.384-0.1l0.1,0.288a0.335,0.335,0,0,0,.1.192,1.007,1.007,0,0,1,.624.624,0.419,0.419,0,0,0,.576-0.144,0.673,0.673,0,0,0,0-.528c-0.048-.288-0.048-0.288.288-0.24a0.358,0.358,0,0,0,.432-0.24c0-.24-0.048-0.48-0.048-0.72a0.528,0.528,0,0,1,.48-0.288,0.746,0.746,0,0,1,.288.384,0.528,0.528,0,0,1-.144.288,0.09,0.09,0,0,0,0,.144,0.145,0.145,0,0,0,.144,0l0.912-.528a0.479,0.479,0,0,0,.192-0.24,9.122,9.122,0,0,0,.192-1.968,2,2,0,0,1,.192-1.392,0.678,0.678,0,0,0,.048-0.432c-0.144-.528.192-1.008,0-1.488,0.24-1.056.048-2.064,0.288-3.12a6.761,6.761,0,0,0-.048-0.96,1.8,1.8,0,0,1-.048-0.48,1.5,1.5,0,0,0,.1-1.008,0.818,0.818,0,0,1,0-.48,6.149,6.149,0,0,0,.192-2.064,7.066,7.066,0,0,1,0-1.008,3.123,3.123,0,0,0,.1-1.632c0-.144.048-0.24,0.048-0.384a6.493,6.493,0,0,0,.192-1.392c0.048-.624,0-1.3.048-1.968V25.334a9.794,9.794,0,0,0-.144-2.4,0.784,0.784,0,0,1,0-.576,9.591,9.591,0,0,0,.1-1.68,30.59,30.59,0,0,0-.336-3.552,2.609,2.609,0,0,0-1.152-2.016c-0.384-.24-0.48-0.384-0.816.1l-0.1.192c-0.144.192-.192,0.528-0.432,0.48a2.716,2.716,0,0,1-.48-0.528c-0.1-.24-0.1-0.432-0.192-0.624-0.1-.24-0.432-0.336-0.528-0.144a3.437,3.437,0,0,0-.768,1.2,0.218,0.218,0,0,1-.384.1,0.524,0.524,0,0,0-.816-0.1,1.09,1.09,0,0,0-.624.672,1.972,1.972,0,0,1-.528.816,0.666,0.666,0,0,0-.336.576,0.813,0.813,0,0,1-.336.576,17.2,17.2,0,0,0-1.488,2.16c0,0.048-.048.144-0.048,0.192a1.853,1.853,0,0,1-.48.912,3.46,3.46,0,0,0-.768,1.152A5.352,5.352,0,0,1,38.9,23.99a4.7,4.7,0,0,1-.624,1.056c-0.336.288-.192,0.672-0.528,0.96a5.041,5.041,0,0,0-.576,1.008c-0.24.48-.432,1.008-0.72,1.488l-0.576.864a1.706,1.706,0,0,0-.384.96,0.917,0.917,0,0,1-.336.672,4.572,4.572,0,0,0-.72.96c-0.192.384-.24,0.768-0.432,1.1-0.144.336-.384,0.672-0.624,1.1l-0.384.864c-0.336.576-.624,1.2-0.912,1.824a0.966,0.966,0,0,0-.192.384l-0.384.816a12.048,12.048,0,0,0-1.152,2.208,4.972,4.972,0,0,0-.672,1.536,0.547,0.547,0,0,1-.144.288,5.215,5.215,0,0,0-.816,1.536c-0.1.24-.1,0.48-0.192,0.72a4.8,4.8,0,0,1-.384.672v0.1a0.725,0.725,0,0,0,.1.768,0.5,0.5,0,0,1,.048.768,1.982,1.982,0,0,0-.336.528,0.3,0.3,0,0,0,.288.48A2.026,2.026,0,0,1,29.3,47.8a0.663,0.663,0,0,1,.144.192c-0.048,0-.1.048-0.144,0.048-0.144.048-.288,0-0.48,0.048a0.477,0.477,0,0,0-.336.48c-0.048.192,0.144,0.192,0.288,0.288a0.552,0.552,0,0,0,.816-0.048c0.144-.144.24,0,0.384,0.1,0.288,0.24.288,0.192,0.432-.1a1.082,1.082,0,0,1,.72-0.72c0.24-.048.24-0.1,0.192,0.144a0.786,0.786,0,0,0,.1.576c0.144,0.432.144,0.48,0.528,0.336,0.192-.1.336-0.192,0.432,0.1a0.168,0.168,0,0,0,.144.192,0.609,0.609,0,0,0,.288.048,0.3,0.3,0,0,0,.192-0.144c0.192-.576.672-0.96,0.864-1.488a4.062,4.062,0,0,1,.672-0.912,0.438,0.438,0,0,1,.384-0.144c0.288,0.192.384,0.048,0.48-.192,0.1-.288.1-0.24-0.24-0.24-0.048,0-.144,0-0.144-0.048a0.409,0.409,0,0,1,0-.24,4.444,4.444,0,0,1,1.392-1.44,0.176,0.176,0,0,0,.048-0.144c0.1-.192.144-0.192,0.288,0C36.738,44.536,36.786,44.584,36.786,44.632ZM43.65,32.247A7.432,7.432,0,0,0,43.6,33.3a0.526,0.526,0,0,1-.384.576H43.17a3.515,3.515,0,0,0-1.1.432,9.6,9.6,0,0,0-1.008.48A1.9,1.9,0,0,1,40,34.983a0.233,0.233,0,0,0-.336.144l-0.24.24a0.237,0.237,0,0,1-.144.048,0.243,0.243,0,0,1-.048-0.24,4.011,4.011,0,0,0,.72-1.584,1.92,1.92,0,0,1,.528-0.576,0.4,0.4,0,0,1,.24,0c0,0.1.048,0.144,0.048,0.24l0.192-.1c0.144-.192.24-0.432,0.384-0.672,0.1-.24.048-0.288-0.288-0.432a2.761,2.761,0,0,1,.816-1.392c0.144-.1.192-0.432,0.384-0.576a0.813,0.813,0,0,0,.336-0.576,0.616,0.616,0,0,1,.192-0.48,3.979,3.979,0,0,0,.576-1.008,0.5,0.5,0,0,1,.192-0.144l0.192,0.24a0.1,0.1,0,0,1,.048.1c-0.144.528,0.144,1.008-.048,1.488a0.214,0.214,0,0,0,0,.24A6.17,6.17,0,0,1,43.65,32.247Zm1.728,6.672a1.232,1.232,0,0,1,.1-0.24,0.547,0.547,0,0,1,.288-0.144c0.144-.048.1,0.144,0.1,0.24,0,1.008,0,2.016-.048,3.024,0,0.816-.048,1.632-0.1,2.4l-0.1.768a3.609,3.609,0,0,0,0,.72c0,0.624-.1,1.248-0.144,1.92a0.1,0.1,0,0,0-.048.1l-0.1-.144a4.634,4.634,0,0,1,0-.816,30.909,30.909,0,0,1,.144-3.648,1.366,1.366,0,0,0,0-.624,0.639,0.639,0,0,0-.144-0.24,0.811,0.811,0,0,1-.144-0.288,10.851,10.851,0,0,1,.048-1.248,0.289,0.289,0,0,1,.048-0.192c0,0.048.048,0.144,0.048,0.192a7.794,7.794,0,0,0,.048,1.008,0.168,0.168,0,0,1,.048.1,0.254,0.254,0,0,0,.1-0.144V40.119a1.936,1.936,0,0,0,0-.528q0-.36-0.288-0.144a0.667,0.667,0,0,1,.1-0.528h0.048Zm0.192-6.288a25.157,25.157,0,0,1,.1-2.688,7.232,7.232,0,0,0,.048-1.44,0.712,0.712,0,0,1,.048-0.336,0.176,0.176,0,0,1,.048-0.144v0.144a4.937,4.937,0,0,1,.048.816c0.048,0.576.048,1.152,0.048,1.776,0,0.528-.048,1.1-0.048,1.68a6.628,6.628,0,0,1-.048,1.68,0.645,0.645,0,0,0,.1.384v0.336a0.254,0.254,0,0,1-.1.144c-0.048,0-.1-0.048-0.144-0.048a1.4,1.4,0,0,1-.1-0.432V32.631Zm-3.984,3.648-0.1.1c-0.144-.144,0-0.144.048-0.144l0.576-.432,0.528-.24a2.153,2.153,0,0,1-.576.048,0.144,0.144,0,0,1-.192-0.048,0.609,0.609,0,0,1,.048-0.288l0.24-.144c0.336-.1.576-0.24,0.912-0.336,0.24-.1.384-0.1,0.384,0a0.365,0.365,0,0,1-.288.384,0.407,0.407,0,0,0-.144.144,0.817,0.817,0,0,1,.336.048,0.232,0.232,0,0,1,.048.192l-0.048.048Zm1.68,1.968a2.836,2.836,0,0,1-.672.288c-0.432.144-.624,0.144-0.624,0a0.579,0.579,0,0,1,.384-0.528,3.218,3.218,0,0,1,.864-0.336,3.535,3.535,0,0,1,.288.24A1.008,1.008,0,0,1,43.266,38.247ZM37.65,29.7l1.3-2.4c0-.048.048-0.048,0.1-0.048,0,0.048.048,0.1,0.048,0.144a0.153,0.153,0,0,1,0,.144,4.841,4.841,0,0,1-.336.72,17.4,17.4,0,0,0-.96,1.584c-0.048,0-.1.048-0.144,0.048V29.7Zm8.3,7.969c0,0.288-.1.432-0.24,0.384a0.361,0.361,0,0,1-.192-0.432A2.737,2.737,0,0,1,45.571,37a0.193,0.193,0,0,1,.24-0.192,0.3,0.3,0,0,1,.144.192,1.3,1.3,0,0,1,0,.432v0.24Zm-6.481-.528a0.945,0.945,0,0,1-.72.48,0.835,0.835,0,0,1,.672-0.576,0.3,0.3,0,0,1,.336-0.1C39.762,37.1,39.618,37.1,39.474,37.143Zm8.209,11.809a0.7,0.7,0,0,0-.24.576c0.048,0,.048.048,0.1,0.048l0.384-.288a0.409,0.409,0,0,0,0-.24A0.175,0.175,0,0,0,47.683,48.952Zm-9.649-10.7c-0.048.048-.1,0-0.192-0.048V38.151c0.144-.144.24-0.336,0.336-0.432a0.766,0.766,0,0,1,.384.144A3.664,3.664,0,0,1,38.034,38.247Zm1.44-11.953,0.336-.528a0.047,0.047,0,0,0,.048-0.048,0.69,0.69,0,0,0,.1.144l-0.336.528a0.047,0.047,0,0,1-.048.048A0.69,0.69,0,0,1,39.474,26.294Zm-2.64,4.944,0.192-.1c0,0.048.048,0.144,0.048,0.192a0.364,0.364,0,0,1-.1.192,0.483,0.483,0,0,1-.144-0.048v-0.24ZM35.97,45.64c0.048,0,.1,0,0.1-0.048a0.9,0.9,0,0,0,.192-0.432l-0.336.336A0.483,0.483,0,0,1,35.97,45.64Zm4.752-12.1a0.433,0.433,0,0,0-.24.048,0.369,0.369,0,0,0,.1.144c0.048,0.048.1,0,.192-0.048A0.237,0.237,0,0,1,40.722,33.543ZM34.53,47.56a0.181,0.181,0,0,0,.1.1,0.363,0.363,0,0,0,.192-0.048l-0.1-.192Zm6.432-15.313a0.162,0.162,0,0,1,.1-0.144,0.483,0.483,0,0,1,.048.144,0.153,0.153,0,0,1,0,.144s-0.1.048-.1,0A0.176,0.176,0,0,1,40.962,32.247Zm2.784-4.657a0.149,0.149,0,0,0-.1-0.048A0.433,0.433,0,0,1,43.7,27.3a0.37,0.37,0,0,1,.144.1ZM34.29,41.031a0.293,0.293,0,0,1,.144-0.336C34.434,40.839,34.482,40.983,34.29,41.031Zm5.665-11.089a0.438,0.438,0,0,1-.144.384C39.81,30.134,39.81,29.99,39.954,29.942Zm-2.5.144a0.364,0.364,0,0,1,.192-0.1c0,0.048-.048.144-0.048,0.192a0.483,0.483,0,0,1-.144.048V30.086Zm8.3-2.88V26.774a0.176,0.176,0,0,1,.048.144V27.4A0.232,0.232,0,0,1,45.763,27.206Zm-8.977,8.977a0.519,0.519,0,0,1,.144-0.336C36.93,36.039,36.93,36.135,36.786,36.183Zm3.552-6.913a0.258,0.258,0,0,1-.144.288A0.342,0.342,0,0,1,40.338,29.27Zm-3.12,1.344,0.1,0.1c0,0.048,0,.1-0.048.1a0.176,0.176,0,0,1-.144-0.048Zm-0.48,14.017H36.45C36.546,44.824,36.642,44.728,36.738,44.632ZM40.53,28.838l0.144-.288A0.2,0.2,0,0,1,40.53,28.838Zm2.5,6.481a0.273,0.273,0,0,0-.336.192A1.2,1.2,0,0,1,43.026,35.319Zm-2.832-.864-0.192.1L40.05,34.6c0.048,0,.144-0.048.192-0.048A0.149,0.149,0,0,1,40.194,34.455Zm0.528-1.44V32.871a0.168,0.168,0,0,1,.048-0.1c0.048,0,.048.1,0.048,0.1A0.254,0.254,0,0,1,40.722,33.015Zm-3.216,5.52-0.144.1v-0.1c0.048,0,.1-0.048.144-0.048v0.048ZM37.7,34.407a0.507,0.507,0,0,1,.1-0.24A0.228,0.228,0,0,1,37.7,34.407ZM37.17,35.463l0.1-.288A0.353,0.353,0,0,1,37.17,35.463Zm5.761-6.337v0.1l0.1-.1-0.048-.048A0.047,0.047,0,0,0,42.93,29.126ZM36.978,35.8a0.254,0.254,0,0,0,.1-0.144C37.074,35.751,37.074,35.8,36.978,35.8Zm4.176-7.969c0,0.048-.048.048-0.048,0.1a0.176,0.176,0,0,1,.048-0.144V27.83Zm-0.48-3.456-0.048.1v-0.1h0.048ZM40.386,39.543l-0.1-.048h0.1v0.048Zm-3.84-2.928h0.048l-0.048.048V36.615Zm0-4.656v0.048H36.5Zm4.224,4.752V36.663h0.048Zm0.72-4.848,0.048-.048H41.49v0.048ZM40.722,28.55L40.77,28.5A0.047,0.047,0,0,1,40.722,28.55Z"/>
</svg>
