<?xml version="1.0" standalone="no"?>
<!DOCTYPE svg PUBLIC "-//W3C//DTD SVG 20010904//EN"
 "http://www.w3.org/TR/2001/REC-SVG-20010904/DTD/svg10.dtd">
<svg version="1.0" xmlns="http://www.w3.org/2000/svg"
 width="1024.000000pt" height="1024.000000pt" viewBox="0 0 1024.000000 1024.000000"
 preserveAspectRatio="xMidYMid meet">
<metadata>
Created by potrace 1.11, written by Peter Selinger 2001-2013
</metadata>
<g transform="translate(0.000000,1024.000000) scale(0.100000,-0.100000)"
fill="#000000" stroke="none">
<path d="M4785 9909 c-840 -60 -1649 -340 -2355 -814 -427 -288 -828 -670
-1149 -1095 -307 -406 -567 -907 -726 -1394 -311 -956 -311 -2016 0 -2972 137
-420 370 -889 617 -1244 397 -569 894 -1033 1493 -1395 159 -96 496 -262 680
-335 1146 -453 2404 -453 3550 0 295 117 683 324 935 498 484 335 911 761
1243 1239 184 265 387 646 507 948 453 1146 453 2404 0 3550 -77 195 -241 524
-350 705 -361 596 -874 1133 -1445 1512 -356 237 -783 444 -1179 573 -571 186
-1223 266 -1821 224z m2654 -1997 c12 -9 31 -43 41 -74 20 -61 74 -138 97
-138 7 0 25 23 41 51 38 71 70 109 93 109 58 0 195 -136 229 -227 12 -32 28
-110 35 -173 7 -63 21 -171 31 -240 19 -142 21 -486 3 -553 -8 -31 -7 -58 6
-124 15 -74 16 -149 12 -631 -4 -466 -7 -557 -21 -617 -12 -51 -15 -92 -11
-150 4 -50 2 -97 -5 -125 -7 -25 -16 -153 -20 -285 -5 -159 -13 -257 -23 -291
-11 -39 -12 -64 -4 -112 8 -48 6 -71 -5 -107 -13 -37 -14 -62 -5 -137 7 -66 7
-116 -1 -178 -7 -48 -12 -123 -12 -166 0 -44 -5 -120 -10 -170 -5 -50 -12
-163 -14 -250 -4 -131 -9 -169 -27 -214 -19 -49 -20 -66 -14 -161 5 -78 2
-129 -9 -190 -8 -46 -18 -101 -21 -121 -6 -41 -19 -52 -128 -113 -49 -27 -72
-34 -79 -27 -8 8 -6 18 6 37 19 29 15 54 -13 79 -18 16 -22 16 -50 1 -34 -17
-33 -15 -31 -98 2 -74 -9 -87 -71 -87 -49 0 -49 0 -42 -27 14 -55 8 -95 -16
-114 -39 -32 -66 -24 -101 26 -17 25 -44 52 -60 60 -17 9 -33 28 -40 51 -9 27
-16 34 -29 29 -9 -3 -36 -12 -60 -18 -39 -11 -45 -10 -55 7 -56 94 -68 107
-113 129 -27 12 -54 29 -61 37 -21 24 -9 137 21 203 l25 56 -25 27 c-18 20
-23 34 -19 53 16 70 18 122 6 150 -10 25 -9 42 5 98 10 38 21 139 26 228 4 88
14 204 20 258 14 103 8 141 -23 161 -25 16 -175 -35 -219 -75 -19 -17 -72 -50
-119 -75 -78 -40 -149 -90 -307 -217 -33 -26 -70 -66 -82 -87 -32 -58 -107
-90 -137 -60 -14 14 -28 -3 -44 -55 -7 -22 -25 -68 -41 -102 -22 -50 -33 -64
-56 -69 -15 -4 -33 -11 -40 -16 -7 -5 -21 -7 -33 -3 -34 11 -144 -84 -211
-181 -39 -57 -38 -74 5 -74 44 0 47 -6 29 -52 -18 -44 -31 -51 -73 -35 -31 12
-33 11 -84 -43 -28 -31 -66 -85 -85 -120 -19 -36 -54 -93 -77 -127 -24 -35
-50 -78 -60 -98 -13 -28 -22 -35 -44 -35 -37 0 -60 9 -60 24 0 7 -6 20 -12 29
-12 16 -16 16 -55 1 -23 -9 -48 -14 -56 -11 -22 8 -60 121 -52 155 6 28 5 29
-22 24 -46 -8 -69 -29 -102 -92 -18 -33 -38 -60 -45 -60 -7 0 -27 11 -46 25
-31 23 -36 24 -54 10 -46 -34 -65 -36 -116 -14 -67 29 -75 40 -60 84 13 40 35
55 79 55 16 0 36 3 45 6 51 20 -28 54 -123 54 -71 0 -101 14 -101 46 0 18 31
80 65 130 32 48 32 63 -6 110 -28 35 -31 44 -26 90 3 32 16 69 35 100 17 27
38 78 47 114 20 80 96 242 135 292 16 20 34 58 40 85 6 26 32 89 59 138 26 50
58 116 71 148 12 32 53 111 90 175 37 65 138 264 225 442 87 179 168 341 180
360 38 60 75 137 102 213 30 84 56 127 118 197 62 70 72 88 80 145 8 60 29
102 106 217 32 48 95 162 139 255 45 92 94 184 110 204 16 21 38 61 49 90 11
28 32 64 45 78 29 31 113 179 186 329 31 63 77 135 120 189 43 54 75 103 81
128 12 47 12 47 108 207 41 67 98 148 126 178 60 63 75 88 75 125 0 17 15 43
43 73 56 61 82 99 96 143 13 39 47 75 101 108 48 29 88 27 122 -6 35 -34 55
-25 75 32 7 22 29 56 47 75 18 19 45 52 61 73 31 42 43 45 74 19z m-2943 -168
c35 -15 76 -16 359 -9 246 5 331 4 365 -6 29 -8 122 -13 265 -13 244 -2 265
-6 265 -56 0 -23 -9 -35 -42 -57 -31 -21 -45 -39 -54 -69 -18 -62 -9 -68 74
-55 118 18 166 15 201 -15 32 -27 51 -76 51 -135 0 -52 -18 -63 -66 -43 -52
22 -109 14 -183 -25 -50 -26 -72 -31 -128 -31 -48 0 -64 -3 -53 -10 8 -5 51
-10 95 -10 94 0 125 -7 125 -27 0 -32 -63 -43 -245 -43 -96 0 -175 -4 -175 -9
0 -26 32 -28 242 -18 119 5 224 7 232 4 31 -12 19 -62 -24 -101 -35 -32 -46
-36 -92 -36 -49 0 -55 -3 -90 -41 l-37 -41 -78 7 c-48 5 -85 13 -96 23 -16 14
-22 14 -65 -1 -55 -20 -126 -21 -312 -6 -129 10 -135 10 -173 -11 -27 -16 -48
-20 -68 -16 -39 7 -91 -14 -106 -45 -25 -47 -72 -187 -82 -242 -5 -31 -28
-104 -50 -163 -23 -59 -52 -149 -65 -200 -24 -88 -94 -245 -116 -259 -5 -3
-10 -25 -10 -48 0 -23 -12 -69 -26 -102 -14 -33 -36 -87 -49 -121 -13 -33 -41
-103 -63 -155 -53 -123 -114 -331 -107 -361 4 -15 -3 -41 -20 -71 -14 -26 -25
-54 -25 -61 0 -7 -10 -26 -22 -41 -13 -17 -26 -57 -34 -102 -10 -57 -20 -82
-43 -108 -19 -22 -33 -54 -41 -91 -7 -31 -21 -82 -31 -113 -11 -31 -29 -89
-40 -130 -11 -41 -44 -138 -73 -215 -30 -78 -101 -285 -159 -461 -58 -176
-156 -471 -219 -655 -63 -184 -127 -377 -142 -429 -23 -81 -34 -101 -71 -137
-47 -46 -50 -53 -60 -126 -5 -40 -10 -49 -31 -54 -13 -3 -31 -3 -39 0 -20 7
-54 82 -55 117 0 14 23 95 50 181 28 86 50 167 50 180 0 14 -11 34 -26 47 -25
21 -26 28 -21 80 3 32 90 312 207 671 178 548 212 667 180 634 -5 -5 -42 -112
-84 -239 -185 -567 -498 -1481 -513 -1497 -9 -10 -29 -18 -44 -18 -33 0 -52
-24 -69 -89 -21 -81 -82 -113 -140 -74 -88 58 -113 111 -86 178 9 20 16 41 16
45 0 3 -25 5 -55 2 -44 -4 -60 -1 -75 13 -30 27 -24 65 25 156 24 46 45 90 45
98 0 7 -16 31 -35 52 -46 51 -46 88 0 182 23 46 38 97 44 142 6 44 23 99 45
147 20 42 56 152 81 245 56 207 70 251 157 486 37 104 80 234 94 289 14 56 46
153 71 217 25 64 69 193 99 286 29 94 67 206 83 250 16 44 34 105 41 135 7 30
24 77 37 103 28 57 135 374 168 502 25 96 55 187 199 615 87 260 110 342 97
349 -17 11 -601 2 -683 -10 -37 -5 -118 -9 -181 -9 l-115 0 -58 43 c-82 61
-141 129 -171 195 -14 31 -38 85 -54 118 -47 99 -32 201 34 232 52 25 180 42
357 48 96 4 182 10 190 15 9 5 -7 9 -45 9 -81 1 -132 14 -162 42 -23 21 -34
23 -169 26 -79 2 -144 8 -144 12 0 21 55 70 88 80 53 14 229 19 1102 31 654 8
777 12 790 25 18 18 19 18 66 -2z m-1276 -878 c0 -3 -4 -8 -10 -11 -5 -3 -10
-1 -10 4 0 6 5 11 10 11 6 0 10 -2 10 -4z m2570 -3896 c-12 -29 -40 -42 -40
-18 0 14 41 60 48 53 3 -2 -1 -18 -8 -35z m-225 -350 c-8 -13 -32 -13 -40 1
-4 6 1 16 11 24 16 11 20 11 27 -1 4 -8 5 -19 2 -24z m2099 -219 c14 -15 15
-24 7 -39 -13 -25 -66 -64 -75 -55 -13 13 -5 61 15 87 24 31 31 32 53 7z"/>
<path d="M6347 6075 c-28 -41 -33 -55 -19 -55 11 0 54 70 49 83 -2 6 -15 -7
-30 -28z"/>
<path d="M6132 5679 c-57 -105 -101 -198 -100 -208 3 -11 9 -6 22 19 11 19 50
85 89 145 38 61 78 129 88 153 20 45 25 82 12 82 -5 0 -54 -86 -111 -191z"/>
<path d="M6990 5844 c0 -8 5 -12 10 -9 6 3 10 10 10 16 0 5 -4 9 -10 9 -5 0
-10 -7 -10 -16z"/>
<path d="M6926 5717 c-14 -29 -43 -77 -66 -107 -22 -29 -40 -64 -40 -76 0 -36
-18 -75 -55 -116 -19 -21 -35 -42 -35 -48 0 -5 -23 -35 -51 -66 -46 -51 -99
-145 -99 -176 0 -7 12 -22 27 -34 l27 -21 -35 -68 c-41 -81 -62 -96 -89 -63
l-19 23 -44 -43 c-35 -34 -49 -58 -68 -120 -13 -42 -41 -105 -62 -140 -30 -49
-36 -67 -27 -76 9 -8 19 -2 44 26 31 36 34 37 100 37 63 0 77 5 239 80 95 44
191 84 215 90 73 16 78 25 85 162 4 67 14 167 23 223 11 70 14 122 9 171 -4
39 -7 84 -6 100 4 159 -1 261 -16 277 -24 27 -30 23 -57 -35z m-46 -137 c0 -5
-5 -10 -11 -10 -5 0 -7 5 -4 10 3 6 8 10 11 10 2 0 4 -4 4 -10z m-362 -723 c2
-11 -3 -17 -16 -17 -23 0 -37 26 -19 34 19 7 32 1 35 -17z m-83 -148 c-8 -12
-35 -12 -35 0 0 11 22 20 33 14 4 -2 5 -9 2 -14z"/>
<path d="M7317 5595 c-10 -194 -19 -894 -13 -921 4 -13 14 -24 22 -24 14 0 16
8 10 53 -4 28 -7 59 -7 67 8 516 9 766 3 850 l-9 105 -6 -130z"/>
<path d="M6376 5423 c-6 -14 -5 -15 5 -6 7 7 10 15 7 18 -3 3 -9 -2 -12 -12z"/>
<path d="M6000 5419 c0 -5 5 -7 10 -4 6 3 10 8 10 11 0 2 -4 4 -10 4 -5 0 -10
-5 -10 -11z"/>
<path d="M5907 5243 c-11 -10 -8 -43 3 -43 15 0 24 30 13 41 -5 5 -12 6 -16 2z"/>
<path d="M6561 5074 c0 -11 3 -14 6 -6 3 7 2 16 -1 19 -3 4 -6 -2 -5 -13z"/>
<path d="M6813 4639 c-60 -23 -104 -47 -104 -55 -1 -8 -2 -20 -3 -26 -1 -9 16
-12 59 -10 l60 2 -55 -29 c-30 -17 -68 -41 -85 -55 -26 -22 -11 -18 110 27 97
37 141 58 143 70 3 14 -4 17 -35 17 -22 0 -44 -5 -51 -12 -6 -6 -14 -9 -18 -5
-9 9 5 27 21 27 24 0 95 53 95 72 0 26 -22 23 -137 -23z"/>
<path d="M7306 4335 c-23 -23 -23 -157 0 -176 27 -23 44 14 44 97 0 80 -15
107 -44 79z"/>
<path d="M6294 4304 c-46 -20 -84 -55 -84 -76 0 -14 35 5 76 42 22 21 47 39
55 42 8 3 12 7 9 10 -3 3 -28 -5 -56 -18z"/>
<path d="M6869 4195 c-91 -33 -149 -75 -149 -107 0 -31 25 -31 108 -4 73 25
122 58 122 83 0 10 -32 44 -41 42 -2 0 -20 -6 -40 -14z"/>
<path d="M6086 4168 c-34 -45 -17 -59 29 -24 39 30 43 41 19 50 -22 8 -20 9
-48 -26z"/>
<path d="M7287 4052 c-10 -10 -17 -22 -17 -26 0 -4 -7 -14 -15 -22 -24 -24
-19 -62 8 -66 22 -3 22 -5 24 -183 3 -167 -4 -222 -24 -201 -4 4 -10 49 -13
99 l-6 92 -8 -108 c-8 -106 -8 -108 18 -147 31 -47 34 -81 18 -225 -10 -88
-19 -540 -12 -620 l2 -30 9 35 c5 19 13 130 19 245 6 116 14 248 20 295 5 47
12 264 16 483 6 350 5 397 -8 397 -8 0 -22 -8 -31 -18z"/>
<path d="M5497 3714 c-4 -4 -7 -14 -7 -23 0 -11 3 -12 11 -4 6 6 10 16 7 23
-2 6 -7 8 -11 4z"/>
<path d="M5840 3120 c0 -13 7 -20 20 -20 23 0 26 10 8 28 -18 18 -28 15 -28
-8z"/>
</g>
</svg>
